<svg width="32" height="32" viewBox="0 0 32 32" fill="none" xmlns="http://www.w3.org/2000/svg">
<rect x="0.5" y="0.5" width="31" height="31" rx="15.5" fill="white"/>
<rect x="0.5" y="0.5" width="31" height="31" rx="15.5" stroke="#E3E2E2"/>
<path d="M20 9.33337C20.1633 9.3334 20.3209 9.39334 20.4429 9.50185C20.5649 9.61036 20.6429 9.75987 20.662 9.92204L20.6667 10V12.6667C20.6666 12.83 20.6067 12.9876 20.4982 13.1096C20.3897 13.2316 20.2402 13.3096 20.078 13.3287L20 13.3334H18V14H20C20.0949 14.0001 20.1887 14.0204 20.2751 14.0596C20.3616 14.0988 20.4386 14.156 20.5012 14.2274C20.5637 14.2987 20.6103 14.3826 20.6378 14.4735C20.6653 14.5643 20.6731 14.66 20.6607 14.754L20.6473 14.8287L19.9807 17.4954C19.9476 17.627 19.8751 17.7455 19.7729 17.8348C19.6706 17.9242 19.5436 17.9802 19.4087 17.9954L19.3333 18H18V22C18 22.1633 17.94 22.3209 17.8315 22.443C17.723 22.565 17.5735 22.6429 17.4113 22.662L17.3333 22.6667H14.6667C14.5034 22.6667 14.3458 22.6067 14.2238 22.4982C14.1017 22.3897 14.0238 22.2402 14.0047 22.078L14 22V18H12.6667C12.5034 18 12.3458 17.9401 12.2238 17.8316C12.1017 17.7231 12.0238 17.5735 12.0047 17.4114L12 17.3334V14.6667C12 14.5034 12.06 14.3458 12.1685 14.2238C12.277 14.1018 12.4265 14.0238 12.5887 14.0047L12.6667 14H14V13.3334C14 12.2985 14.401 11.3038 15.119 10.5584C15.8369 9.81299 16.8158 9.37485 17.85 9.33604L18 9.33337H20Z" fill="black"/>
</svg>
