<svg width="13" height="20" viewBox="0 0 13 20" fill="none" xmlns="http://www.w3.org/2000/svg">
<path d="M12 0C12.2449 3.23106e-05 12.4813 0.0899562 12.6644 0.252715C12.8474 0.415475 12.9643 0.639749 12.993 0.883L13 1V5C13 5.24493 12.91 5.48134 12.7473 5.66437C12.5845 5.84741 12.3603 5.96434 12.117 5.993L12 6H9V7H12C12.1424 7.00005 12.2831 7.0305 12.4127 7.0893C12.5423 7.14811 12.6579 7.23391 12.7517 7.34098C12.8456 7.44804 12.9154 7.57391 12.9567 7.71015C12.998 7.84639 13.0096 7.98987 12.991 8.131L12.971 8.243L11.971 12.243C11.9214 12.4405 11.8126 12.6182 11.6593 12.7522C11.506 12.8862 11.3154 12.9702 11.113 12.993L11 13H9V19C8.99997 19.2449 8.91004 19.4813 8.74728 19.6644C8.58453 19.8474 8.36025 19.9643 8.117 19.993L8 20H4C3.75507 20 3.51866 19.91 3.33563 19.7473C3.15259 19.5845 3.03566 19.3603 3.007 19.117L3 19V13H1C0.755067 13 0.518663 12.91 0.335628 12.7473C0.152593 12.5845 0.0356572 12.3603 0.00699997 12.117L0 12V8C3.23106e-05 7.75507 0.089956 7.51866 0.252715 7.33563C0.415474 7.15259 0.639749 7.03566 0.883 7.007L1 7H3V6C2.99994 4.44762 3.60157 2.95564 4.67847 1.83753C5.75537 0.719417 7.22371 0.0622142 8.775 0.00399995L9 0H12Z" fill="black"/>
</svg>
