<svg width="207" height="16" viewBox="0 0 207 16" fill="none" xmlns="http://www.w3.org/2000/svg">
<path d="M100.024 15.7126V14.9844L101.08 14.8503C101.181 14.862 101.283 14.8449 101.375 14.8008C101.466 14.7567 101.544 14.6874 101.598 14.6012C101.708 14.3547 101.754 14.0846 101.732 13.8156V2.85503C101.756 2.61074 101.709 2.36471 101.598 2.14606C101.598 2.01193 101.329 1.93529 101.041 1.91613L100.024 1.80116V1.05395H104.438L111.326 12.7617V2.87421C111.344 2.6259 111.305 2.3768 111.211 2.14606C111.14 2.07037 111.054 2.01075 110.958 1.9711C110.862 1.93144 110.759 1.91267 110.655 1.91613L109.638 1.80116V1.05395H114.166V1.80116L113.13 1.91613C113.03 1.91227 112.93 1.93294 112.84 1.97636C112.75 2.01978 112.671 2.08465 112.612 2.16524C112.51 2.42077 112.464 2.69533 112.478 2.97012V15.7126H110.29L102.864 3.42998V13.9305C102.848 14.1868 102.895 14.443 102.998 14.6779C103.067 14.7559 103.153 14.8158 103.25 14.8526C103.347 14.8894 103.452 14.9017 103.555 14.8886L104.572 15.0228V15.7509L100.024 15.7126Z" fill="black"/>
<path d="M11.5443 14.2563C10.3217 15.3741 8.71105 15.9721 7.05413 15.9233C5.40379 15.9671 3.80071 15.3694 2.58298 14.2563C1.97854 13.6925 1.5029 13.0054 1.18832 12.2416C0.873751 11.4778 0.727734 10.6552 0.760135 9.82991V1.16891H3.8111V9.2359C3.77781 10.2091 4.08306 11.1638 4.67473 11.9378C4.95858 12.2912 5.32209 12.5726 5.7356 12.7591C6.14912 12.9456 6.6009 13.0319 7.05413 13.0108C7.50737 13.0319 7.95915 12.9456 8.37266 12.7591C8.78618 12.5726 9.14969 12.2912 9.43353 11.9378C10.0252 11.1638 10.3302 10.2091 10.2969 9.2359V1.16891H13.3479V9.82991C13.3827 10.6537 13.2398 11.4754 12.9286 12.2392C12.6174 13.0029 12.1452 13.6908 11.5443 14.2563Z" fill="black"/>
<path d="M15.6123 15.7126V1.16891H19.0472L25.3986 10.7498V1.16891H28.4687V15.7126H25.0149L18.6825 6.13172V15.7126H15.6123Z" fill="black"/>
<path d="M42.5727 15.7125H39.2339L36.7393 10.6156H33.9951V15.7125H30.9826V1.16889H37.315C38.6001 1.13888 39.8484 1.59779 40.8073 2.45269C41.2887 2.88471 41.6677 3.41845 41.9166 4.01508C42.1656 4.61171 42.2783 5.25621 42.2464 5.90177C42.2667 6.81731 42.0128 7.71801 41.5173 8.48855C41.0483 9.20951 40.3824 9.78142 39.5984 10.1365L42.5727 15.7125ZM33.9951 3.85146V8.00951H37.0079C37.2953 8.0227 37.5824 7.97873 37.8526 7.88004C38.1227 7.78135 38.3703 7.62993 38.5813 7.43468C38.7865 7.24523 38.9477 7.01334 39.0538 6.75518C39.1598 6.49702 39.2083 6.21888 39.1955 5.94013C39.2048 5.65897 39.1548 5.37893 39.0491 5.11818C38.9433 4.85744 38.7839 4.62172 38.5813 4.42629C38.3703 4.23104 38.1227 4.07974 37.8526 3.98104C37.5824 3.88235 37.2953 3.83827 37.0079 3.85146H33.9951Z" fill="black"/>
<path d="M44.2614 15.7126V1.16891H54.5466V3.88984H47.3315V7.08981H54.4121V9.73413H47.3315V12.9916H54.5466V15.7126H44.2614Z" fill="black"/>
<path d="M55.506 15.7126L61.3777 1.16891H64.6015L70.55 15.7126H67.1919L66.2517 13.3174H59.8235L58.9025 15.7126H55.506ZM60.7829 10.5389H65.2538L63.0279 4.67542L60.7829 10.5389Z" fill="black"/>
<path d="M71.9699 15.7126V1.16894H77.6116C78.8665 1.15361 80.1077 1.42905 81.2381 1.97369C82.3489 2.54607 83.2789 3.41503 83.9246 4.48387C84.6319 5.67738 84.9909 7.04465 84.9608 8.43117C84.9789 9.50198 84.7763 10.5651 84.3659 11.5545C84.0017 12.4285 83.4518 13.2131 82.7541 13.854C82.0674 14.4613 81.2736 14.9356 80.4131 15.2527C79.5155 15.5789 78.5667 15.7411 77.6116 15.7318L71.9699 15.7126ZM75.0401 12.7234H77.4963C78.6516 12.7691 79.7819 12.3792 80.6625 11.6311C81.0933 11.2181 81.4283 10.7159 81.6438 10.1597C81.8593 9.60357 81.9501 9.00698 81.9099 8.41199C81.9486 7.82001 81.8569 7.22678 81.6414 6.67394C81.4259 6.1211 81.0918 5.62211 80.6625 5.21202C79.7754 4.4774 78.648 4.09534 77.4963 4.13897H75.0401V12.7234Z" fill="black"/>
<path d="M91.9264 15.7126V1.14973H93.0585V15.7126H91.9264Z" fill="black"/>
<path d="M120.441 16C119.518 16.0233 118.605 15.8052 117.793 15.3676C117.031 14.9247 116.427 14.2546 116.066 13.4515C115.644 12.5602 115.44 11.5817 115.471 10.5964C115.439 9.53075 115.662 8.47286 116.124 7.51138C116.562 6.69888 117.229 6.03262 118.042 5.59522C118.873 5.12788 119.814 4.88971 120.767 4.90531C121.497 4.89003 122.221 5.04772 122.878 5.36528C123.459 5.6521 123.94 6.10591 124.26 6.66826C124.578 7.25668 124.743 7.91563 124.739 8.58443C124.739 8.8527 124.739 9.12093 124.739 9.38919C124.713 9.66023 124.669 9.92911 124.605 10.1939H118.119C118.099 10.9529 118.229 11.7084 118.503 12.4168C118.714 12.9644 119.098 13.4285 119.597 13.7389C120.097 14.0301 120.668 14.1761 121.247 14.1604C121.802 14.1696 122.355 14.0787 122.878 13.8921C123.43 13.6752 123.933 13.3493 124.356 12.9341L124.893 13.4515C124.427 14.2431 123.767 14.9027 122.974 15.3676C122.204 15.8063 121.327 16.0251 120.441 16ZM118.023 9.44661H122.245C122.245 9.29332 122.245 9.14003 122.245 8.96757V8.43111C122.297 7.7257 122.144 7.0202 121.803 6.39997C121.651 6.18971 121.449 6.02135 121.214 5.91076C120.979 5.80017 120.719 5.75093 120.46 5.7676C120.02 5.75929 119.589 5.89378 119.232 6.15086C118.835 6.45061 118.54 6.8655 118.388 7.33888C118.162 8.01951 118.039 8.72985 118.023 9.44661Z" fill="black"/>
<path d="M129.633 15.7126L126.908 7.20477L126.677 6.61076C126.62 6.48988 126.535 6.38471 126.428 6.30423C126.284 6.21867 126.129 6.15407 125.967 6.11254L125.353 5.9784L125.468 5.212H130.649V5.94015H129.786C129.543 5.94015 129.389 6.01679 129.325 6.17008C129.325 6.30422 129.325 6.57246 129.325 6.99402L131.244 13.5281L133.566 5.11621H135.485L137.922 13.5281H138.037L139.841 7.12817C139.933 6.86122 139.933 6.57118 139.841 6.30423C139.841 6.15094 139.591 6.03588 139.304 5.9784L138.536 5.84437V5.11621H142.374V5.84437L141.664 5.9784C141.437 6.01206 141.228 6.11995 141.069 6.28505C140.874 6.54293 140.731 6.83565 140.647 7.14735L138.152 15.6168H136.118L133.739 7.62639L131.532 15.6168L129.633 15.7126Z" fill="black"/>
<path d="M143.832 16L143.506 12.3208H144.369C144.536 12.9015 144.795 13.4515 145.137 13.9497C145.406 14.3352 145.769 14.6453 146.193 14.8502C146.603 15.031 147.048 15.1225 147.497 15.1185C148.04 15.1592 148.576 14.9874 148.994 14.6395C149.172 14.4694 149.312 14.2636 149.404 14.0357C149.497 13.8079 149.54 13.563 149.531 13.3173C149.548 12.9951 149.454 12.677 149.263 12.4168C149.031 12.1737 148.75 11.9839 148.437 11.861C147.979 11.6822 147.512 11.5287 147.037 11.4011C146.588 11.2772 146.146 11.1302 145.713 10.9604C145.324 10.8155 144.961 10.6084 144.638 10.3473C144.339 10.1016 144.097 9.79437 143.928 9.4466C143.755 9.04103 143.67 8.60353 143.679 8.1628C143.669 7.58057 143.829 7.00814 144.139 6.51492C144.452 6.02459 144.898 5.63262 145.425 5.38433C146.022 5.09368 146.68 4.94923 147.344 4.96283C147.833 4.95519 148.32 5.03299 148.783 5.19276C149.151 5.32459 149.499 5.50497 149.819 5.72923L150.049 4.96283H150.721L150.971 8.3353H150.126C149.966 7.61255 149.608 6.94881 149.09 6.41914C148.861 6.2069 148.592 6.04181 148.299 5.93331C148.006 5.82481 147.695 5.77501 147.382 5.78677C146.895 5.76124 146.414 5.90332 146.02 6.18921C145.855 6.32692 145.725 6.50042 145.639 6.69643C145.552 6.89245 145.512 7.10567 145.521 7.31968C145.507 7.63855 145.609 7.95167 145.809 8.20116C146.044 8.45252 146.333 8.64879 146.653 8.77599L147.958 9.21667C148.442 9.35044 148.916 9.51691 149.378 9.71489C149.763 9.87517 150.125 10.088 150.452 10.3473C150.75 10.5941 150.992 10.901 151.162 11.2478C151.34 11.6451 151.426 12.0776 151.412 12.5125C151.437 13.1862 151.263 13.8524 150.913 14.4287C150.574 14.9565 150.096 15.3809 149.531 15.6551C148.895 15.9491 148.199 16.0933 147.497 16.0766C146.979 16.0839 146.463 16.0195 145.962 15.885C145.514 15.7551 145.092 15.5475 144.715 15.2718L144.485 16.0766L143.832 16Z" fill="black"/>
<path d="M152.755 15.7126V14.9844L153.714 14.8503C153.983 14.8503 154.156 14.7354 154.233 14.5821C154.309 14.3408 154.342 14.0876 154.329 13.8348V2.2036C154.356 1.88448 154.31 1.56325 154.194 1.2647C154.115 1.17114 154.014 1.09794 153.901 1.05126C153.787 1.00458 153.664 0.98576 153.542 0.996407L152.659 0.862262V0.134109L156.497 -3.71933e-05L156.689 0.172469V13.9305C156.674 14.16 156.713 14.3898 156.804 14.6012C156.804 14.7544 157.053 14.8311 157.341 14.8694L158.32 15.0228V15.7317L152.755 15.7126Z" fill="black"/>
<path d="M164.614 16.0001C163.697 16.0209 162.791 15.8029 161.985 15.3677C161.223 14.9247 160.619 14.2547 160.258 13.4515C159.829 12.5619 159.619 11.5833 159.644 10.5964C159.617 9.52925 159.848 8.47128 160.315 7.51145C160.742 6.69038 161.412 6.02108 162.234 5.59528C163.057 5.12601 163.992 4.88758 164.94 4.90537C165.67 4.88788 166.394 5.04569 167.051 5.36535C167.64 5.64598 168.129 6.10085 168.452 6.66833C168.77 7.25674 168.935 7.9157 168.931 8.5845C168.931 8.85276 168.931 9.12099 168.931 9.38925C168.915 9.66153 168.87 9.93129 168.797 10.194H162.33C162.31 10.953 162.44 11.7085 162.714 12.4168C162.925 12.9645 163.309 13.4286 163.808 13.739C164.307 14.0321 164.879 14.1782 165.458 14.1605C166.007 14.1712 166.554 14.0802 167.07 13.8922C167.627 13.6844 168.131 13.3574 168.547 12.9341L169.085 13.4515C168.621 14.2447 167.96 14.9048 167.166 15.3677C166.388 15.8043 165.506 16.0229 164.614 16.0001ZM162.215 9.44668H166.437C166.437 9.29339 166.437 9.14009 166.437 8.96764C166.447 8.78893 166.447 8.60988 166.437 8.43117C166.489 7.72576 166.336 7.02027 165.995 6.40004C165.842 6.19109 165.639 6.02372 165.404 5.91328C165.17 5.80283 164.911 5.75278 164.652 5.76767C164.206 5.75931 163.769 5.89362 163.405 6.15093C163.019 6.45756 162.732 6.8707 162.58 7.33894C162.354 8.01958 162.231 8.72991 162.215 9.44668Z" fill="black"/>
<path d="M174.342 16C173.82 16.0222 173.3 15.9169 172.827 15.6934C172.408 15.4726 172.072 15.1234 171.867 14.6971C171.634 14.146 171.523 13.5512 171.541 12.9533V6.1509H170.063V5.40357C170.524 5.37834 170.97 5.2258 171.349 4.96289C171.715 4.69376 171.989 4.31932 172.136 3.88984C172.341 3.2707 172.458 2.62552 172.481 1.97367L173.767 1.82034L173.997 1.93531V5.212H176.99V6.1509H173.997V12.6659C173.96 13.1277 174.067 13.5896 174.304 13.9881C174.418 14.1474 174.572 14.2737 174.751 14.3545C174.929 14.4353 175.126 14.4675 175.321 14.4479C175.657 14.4532 175.991 14.3879 176.3 14.2563C176.636 14.1158 176.947 13.9217 177.221 13.6814L177.605 14.2371C177.214 14.7604 176.725 15.203 176.165 15.5402C175.611 15.8552 174.981 16.0141 174.342 16Z" fill="black"/>
<path d="M182.478 16C181.95 16.0193 181.424 15.9142 180.943 15.6934C180.534 15.4663 180.206 15.1182 180.003 14.6971C179.77 14.146 179.659 13.5512 179.677 12.9533V6.1509H178.199V5.40357C178.661 5.37834 179.106 5.2258 179.485 4.96289C179.851 4.69376 180.125 4.31932 180.272 3.88984C180.468 3.26837 180.584 2.62446 180.617 1.97367L181.903 1.82034L182.114 1.93531V5.212H185.127V6.1509H182.114V12.6659C182.083 13.1298 182.197 13.5918 182.44 13.9881C182.554 14.1474 182.708 14.2737 182.887 14.3545C183.065 14.4352 183.262 14.4675 183.457 14.4479C183.793 14.4532 184.127 14.3879 184.436 14.2563C184.772 14.1158 185.083 13.9217 185.357 13.6814L185.741 14.2371C185.35 14.7604 184.861 15.203 184.302 15.5402C183.747 15.8552 183.117 16.0141 182.478 16Z" fill="black"/>
<path d="M191.593 16.0001C190.67 16.0233 189.758 15.8053 188.945 15.3677C188.193 14.9133 187.592 14.2466 187.218 13.4515C186.797 12.5603 186.593 11.5817 186.623 10.5964C186.591 9.53081 186.814 8.47292 187.276 7.51145C187.71 6.69618 188.378 6.02896 189.195 5.59528C190.018 5.12601 190.953 4.88758 191.9 4.90537C192.631 4.88788 193.354 5.04569 194.011 5.36535C194.596 5.64608 195.079 6.10142 195.393 6.66833C195.711 7.25674 195.876 7.9157 195.873 8.5845C195.873 8.85276 195.873 9.12099 195.873 9.38925C195.857 9.66153 195.811 9.93129 195.738 10.194H189.271C189.243 10.9536 189.373 11.7108 189.655 12.4168C189.866 12.959 190.242 13.4214 190.73 13.739C191.231 14.0283 191.802 14.1741 192.38 14.1605C192.936 14.1713 193.488 14.0804 194.011 13.8922C194.563 13.6752 195.066 13.3494 195.489 12.9341L196.026 13.4515C195.562 14.2447 194.901 14.9048 194.107 15.3677C193.34 15.7977 192.473 16.016 191.593 16.0001ZM189.195 9.44668H193.397C193.397 9.29339 193.397 9.14009 193.397 8.96764V8.43117C193.459 7.72514 193.305 7.01699 192.956 6.40004C192.806 6.18705 192.604 6.01669 192.368 5.90579C192.133 5.79489 191.872 5.74726 191.612 5.76767C191.172 5.75935 190.741 5.89385 190.384 6.15093C189.993 6.45261 189.705 6.86752 189.559 7.33894C189.334 8.01958 189.211 8.72991 189.195 9.44668Z" fill="black"/>
<path d="M197.407 15.7126V14.9844L198.328 14.8503C198.416 14.8539 198.503 14.8346 198.58 14.7943C198.657 14.7539 198.723 14.6939 198.77 14.6204C198.813 14.3731 198.813 14.1203 198.77 13.873V7.43473C198.79 7.10472 198.751 6.77369 198.655 6.45746C198.592 6.36394 198.506 6.28831 198.405 6.23794C198.304 6.18756 198.192 6.16423 198.079 6.17011L197.12 6.03596V5.30781L200.612 5.09706L200.823 5.2312L200.938 7.14737C201.216 6.48492 201.666 5.90914 202.243 5.48031C202.748 5.10369 203.359 4.89581 203.989 4.88631C204.584 4.85769 205.167 5.05636 205.62 5.44195C205.817 5.62885 205.972 5.85533 206.074 6.10637C206.177 6.3574 206.225 6.62731 206.215 6.89826C206.221 7.201 206.162 7.50143 206.042 7.77962C205.954 8.03189 205.777 8.24321 205.543 8.37363C205.285 8.5132 204.993 8.57953 204.699 8.56532C204.352 8.58927 204.007 8.49465 203.721 8.29702C203.618 8.20995 203.535 8.10131 203.478 7.97879C203.422 7.85627 203.393 7.72288 203.394 7.58805C203.376 7.46098 203.376 7.33186 203.394 7.20479C203.44 7.04458 203.505 6.89027 203.586 6.74493L203.951 6.13175C203.618 6.0404 203.267 6.0404 202.934 6.13175C202.581 6.23057 202.258 6.41492 201.994 6.66833C201.685 6.95048 201.442 7.29721 201.284 7.68384C201.086 8.11644 200.987 8.58795 200.996 9.06354V13.9306C200.953 14.1521 200.953 14.3797 200.996 14.6012C200.996 14.7353 201.188 14.812 201.437 14.812L203.068 15.0228V15.7318L197.407 15.7126Z" fill="black"/>
</svg>
