<svg width="155" height="12" viewBox="0 0 155 12" fill="none" xmlns="http://www.w3.org/2000/svg">
<path d="M74.768 11.7844V11.2383L75.5596 11.1377C75.6355 11.1465 75.7122 11.1337 75.781 11.1006C75.8498 11.0675 75.9079 11.0156 75.9482 10.9509C76.0308 10.766 76.0653 10.5634 76.0489 10.3617V2.14128C76.0669 1.95806 76.032 1.77353 75.9482 1.60955C75.9482 1.50895 75.7467 1.45147 75.5308 1.4371L74.768 1.35087V0.790462H78.0782L83.2447 9.57128V2.15566C83.2581 1.96943 83.2285 1.7826 83.1583 1.60955C83.105 1.55278 83.0404 1.50807 82.9684 1.47832C82.8964 1.44858 82.8189 1.4345 82.7411 1.4371L81.9783 1.35087V0.790462H85.3747V1.35087L84.5975 1.4371C84.5223 1.4342 84.4477 1.44971 84.38 1.48227C84.3122 1.51484 84.2536 1.56349 84.209 1.62393C84.1324 1.81557 84.098 2.0215 84.1082 2.22759V11.7844H82.4675L76.898 2.57248V10.4479C76.8863 10.6401 76.9209 10.8323 76.9988 11.0084C77.0501 11.0669 77.1149 11.1119 77.1877 11.1395C77.2604 11.167 77.3388 11.1763 77.416 11.1665L78.1788 11.2671V11.8132L74.768 11.7844Z" fill="black"/>
<path d="M8.40819 10.6922C7.49129 11.5306 6.28329 11.9791 5.0406 11.9425C3.80284 11.9753 2.60053 11.5271 1.68723 10.6922C1.2339 10.2694 0.87717 9.75408 0.641241 9.18121C0.405312 8.60834 0.295799 7.99138 0.320099 7.37243V0.876685H2.60832V6.92693C2.58336 7.6568 2.8123 8.37284 3.25605 8.95333C3.46893 9.21843 3.74157 9.42949 4.0517 9.56935C4.36184 9.70921 4.70067 9.77392 5.0406 9.75811C5.38052 9.77392 5.71936 9.70921 6.0295 9.56935C6.33963 9.42949 6.61226 9.21843 6.82515 8.95333C7.2689 8.37284 7.49766 7.6568 7.4727 6.92693V0.876685H9.76092V7.37243C9.78705 7.9903 9.67988 8.60656 9.44646 9.17937C9.21304 9.75217 8.85892 10.2681 8.40819 10.6922Z" fill="black"/>
<path d="M11.4592 11.7844V0.876685H14.0354L18.7989 8.06231V0.876685H21.1016V11.7844H18.5112L13.7619 4.59879V11.7844H11.4592Z" fill="black"/>
<path d="M31.6796 11.7844H29.1754L27.3044 7.96169H25.2464V11.7844H22.9869V0.87667H27.7363C28.7001 0.854163 29.6363 1.19834 30.3555 1.83952C30.7165 2.16353 31.0008 2.56384 31.1875 3.01131C31.3742 3.45878 31.4587 3.94215 31.4348 4.42633C31.45 5.11298 31.2596 5.78851 30.8879 6.36641C30.5362 6.90713 30.0368 7.33607 29.4488 7.60241L31.6796 11.7844ZM25.2464 2.88859V6.00713H27.5059C27.7215 6.01703 27.9368 5.98405 28.1394 5.91003C28.342 5.83601 28.5277 5.72245 28.686 5.57601C28.8398 5.43392 28.9608 5.26001 29.0403 5.06639C29.1199 4.87277 29.1562 4.66416 29.1466 4.4551C29.1536 4.24422 29.1161 4.03419 29.0368 3.83864C28.9575 3.64308 28.838 3.46629 28.686 3.31971C28.5277 3.17328 28.342 3.0598 28.1394 2.98578C27.9368 2.91176 27.7215 2.8787 27.5059 2.88859H25.2464Z" fill="black"/>
<path d="M32.946 11.7844V0.876685H40.6599V2.91738H35.2487V5.31735H40.5591V7.30059H35.2487V9.74373H40.6599V11.7844H32.946Z" fill="black"/>
<path d="M41.3795 11.7844L45.7833 0.876685H48.2011L52.6625 11.7844H50.144L49.4388 9.98801H44.6176L43.9268 11.7844H41.3795ZM45.3372 7.90416H48.6904L47.0209 3.50656L45.3372 7.90416Z" fill="black"/>
<path d="M53.7275 11.7844V0.876701H57.9587C58.8999 0.865205 59.8308 1.07179 60.6786 1.48027C61.5117 1.90956 62.2092 2.56128 62.6934 3.3629C63.2239 4.25803 63.4932 5.28348 63.4706 6.32338C63.4842 7.12649 63.3322 7.92382 63.0244 8.6659C62.7513 9.32141 62.3389 9.90985 61.8156 10.3905C61.3006 10.846 60.7052 11.2017 60.0598 11.4395C59.3867 11.6842 58.675 11.8059 57.9587 11.7988L53.7275 11.7844ZM56.0301 9.54252H57.8723C58.7387 9.5768 59.5864 9.28438 60.2469 8.72335C60.57 8.4136 60.8212 8.03693 60.9828 7.61981C61.1445 7.20268 61.2126 6.75523 61.1824 6.30899C61.2114 5.86501 61.1427 5.42008 60.9811 5.00546C60.8195 4.59083 60.5689 4.21658 60.2469 3.90901C59.5815 3.35805 58.736 3.0715 57.8723 3.10423H56.0301V9.54252Z" fill="black"/>
<path d="M68.6948 11.7844V0.8623H69.5439V11.7844H68.6948Z" fill="black"/>
<path d="M90.0808 12C89.3887 12.0174 88.7041 11.8539 88.0948 11.5257C87.5233 11.1935 87.0703 10.6909 86.7995 10.0886C86.4831 9.42014 86.3303 8.68626 86.3534 7.94729C86.329 7.14806 86.4967 6.35464 86.8427 5.63354C87.1712 5.02416 87.6716 4.52446 88.2819 4.19641C88.905 3.84591 89.6104 3.66728 90.3255 3.67898C90.8731 3.66752 91.4156 3.78579 91.9086 4.02396C92.3439 4.23908 92.7048 4.57943 92.9447 5.0012C93.1835 5.44251 93.3072 5.93673 93.3045 6.43832C93.3045 6.63952 93.3045 6.8407 93.3045 7.04189C93.285 7.24518 93.2514 7.44683 93.2039 7.64546H88.3395C88.3242 8.21468 88.422 8.78132 88.6272 9.31258C88.7856 9.7233 89.0736 10.0714 89.4477 10.3042C89.8227 10.5226 90.2513 10.6321 90.6853 10.6203C91.1019 10.6272 91.5162 10.559 91.9086 10.4191C92.3226 10.2564 92.6995 10.012 93.0168 9.70054L93.4196 10.0886C93.0704 10.6823 92.575 11.177 91.9804 11.5257C91.4027 11.8547 90.7456 12.0188 90.0808 12ZM88.2674 7.08496H91.4335C91.4335 6.96999 91.4335 6.85502 91.4335 6.72568V6.32333C91.4729 5.79427 91.358 5.26515 91.1026 4.79998C90.9885 4.64229 90.8364 4.51601 90.6602 4.43307C90.484 4.35012 90.2896 4.3132 90.0952 4.3257C89.7651 4.31947 89.4419 4.42034 89.1741 4.61315C88.8762 4.83796 88.6551 5.14913 88.541 5.50416C88.3718 6.01463 88.2795 6.54738 88.2674 7.08496Z" fill="black"/>
<path d="M96.9744 11.7844L94.9307 5.40358L94.758 4.95807C94.7153 4.86741 94.651 4.78853 94.5709 4.72817C94.4633 4.664 94.347 4.61555 94.2255 4.58441L93.7651 4.4838L93.8513 3.909H97.737V4.45511H97.0895C96.9072 4.45511 96.7921 4.51259 96.7441 4.62756C96.7441 4.72816 96.7441 4.92935 96.7441 5.24552L98.1832 10.1461L99.9246 3.83716H101.364L103.192 10.1461H103.278L104.631 5.34612C104.7 5.14591 104.7 4.92838 104.631 4.72817C104.631 4.6132 104.444 4.52691 104.228 4.4838L103.652 4.38327V3.83716H106.53V4.38327L105.998 4.4838C105.828 4.50904 105.671 4.58996 105.552 4.71379C105.406 4.9072 105.298 5.12674 105.235 5.36051L103.364 11.7126H101.839L100.054 5.71979L98.3992 11.7126L96.9744 11.7844Z" fill="black"/>
<path d="M107.624 12L107.38 9.24064H108.027C108.152 9.67609 108.346 10.0886 108.603 10.4622C108.804 10.7514 109.077 10.984 109.394 11.1377C109.703 11.2733 110.036 11.3419 110.373 11.3389C110.78 11.3694 111.182 11.2405 111.496 10.9796C111.629 10.852 111.734 10.6977 111.803 10.5268C111.873 10.3559 111.905 10.1723 111.899 9.98797C111.911 9.74636 111.84 9.50778 111.697 9.31256C111.524 9.13025 111.312 8.98795 111.078 8.89574C110.734 8.76165 110.384 8.64652 110.028 8.55084C109.691 8.45792 109.36 8.34762 109.035 8.22033C108.743 8.11159 108.471 7.95627 108.229 7.76044C108.004 7.57623 107.823 7.34578 107.696 7.08495C107.566 6.78077 107.503 6.45264 107.509 6.1221C107.502 5.68542 107.622 5.2561 107.854 4.88619C108.089 4.51844 108.424 4.22447 108.819 4.03825C109.266 3.82026 109.76 3.71192 110.258 3.72212C110.625 3.71639 110.99 3.77475 111.337 3.89457C111.613 3.99344 111.875 4.12873 112.114 4.29692L112.287 3.72212H112.791L112.978 6.25148H112.345C112.225 5.70942 111.956 5.21161 111.568 4.81435C111.396 4.65518 111.194 4.53136 110.974 4.44998C110.754 4.36861 110.521 4.33126 110.287 4.34008C109.922 4.32093 109.561 4.42749 109.265 4.6419C109.142 4.74519 109.044 4.87532 108.979 5.02233C108.914 5.16933 108.884 5.32925 108.891 5.48976C108.88 5.72891 108.957 5.96375 109.106 6.15087C109.283 6.33939 109.499 6.48659 109.74 6.58199L110.718 6.9125C111.081 7.01283 111.437 7.13768 111.783 7.28617C112.073 7.40637 112.344 7.566 112.589 7.76044C112.812 7.94559 112.994 8.17573 113.122 8.43585C113.255 8.7338 113.319 9.05817 113.309 9.3844C113.327 9.88967 113.197 10.3893 112.935 10.8215C112.68 11.2174 112.322 11.5357 111.899 11.7413C111.421 11.9618 110.899 12.07 110.373 12.0574C109.984 12.0629 109.597 12.0146 109.222 11.9138C108.885 11.8163 108.569 11.6606 108.286 11.4539L108.114 12.0574L107.624 12Z" fill="black"/>
<path d="M114.316 11.7844V11.2383L115.036 11.1377C115.237 11.1377 115.367 11.0515 115.424 10.9366C115.482 10.7556 115.506 10.5657 115.496 10.3761V1.6527C115.517 1.41336 115.483 1.17243 115.396 0.948524C115.336 0.878355 115.261 0.823453 115.175 0.788444C115.09 0.753435 114.998 0.73932 114.906 0.747305L114.244 0.646696V0.100581L117.123 -2.81334e-05L117.267 0.129352V10.4479C117.255 10.62 117.285 10.7924 117.353 10.9509C117.353 11.0658 117.54 11.1233 117.756 11.1521L118.49 11.2671V11.7988L114.316 11.7844Z" fill="black"/>
<path d="M123.21 12C122.523 12.0156 121.843 11.8522 121.239 11.5258C120.667 11.1935 120.214 10.691 119.943 10.0886C119.622 9.4214 119.464 8.68747 119.483 7.94734C119.463 7.14694 119.636 6.35346 119.987 5.63359C120.306 5.01779 120.809 4.51581 121.426 4.19646C122.043 3.84451 122.744 3.66568 123.455 3.67903C124.003 3.66591 124.546 3.78426 125.038 4.02401C125.48 4.23449 125.847 4.57563 126.089 5.00125C126.327 5.44256 126.451 5.93677 126.448 6.43837C126.448 6.63957 126.448 6.84074 126.448 7.04194C126.436 7.24614 126.403 7.44846 126.348 7.64551H121.498C121.482 8.21473 121.58 8.78137 121.786 9.31262C121.944 9.72335 122.232 10.0714 122.606 10.3042C122.98 10.5241 123.409 10.6337 123.843 10.6204C124.255 10.6284 124.665 10.5601 125.052 10.4192C125.47 10.2633 125.848 10.0181 126.16 9.70059L126.563 10.0886C126.216 10.6836 125.72 11.1786 125.124 11.5258C124.541 11.8533 123.879 12.0171 123.21 12ZM121.411 7.08501H124.577C124.577 6.97004 124.577 6.85507 124.577 6.72573C124.585 6.5917 124.585 6.45741 124.577 6.32338C124.617 5.79432 124.502 5.2652 124.246 4.80003C124.132 4.64332 123.979 4.51779 123.803 4.43496C123.627 4.35212 123.433 4.31459 123.239 4.32575C122.905 4.31949 122.577 4.42021 122.304 4.61319C122.014 4.84317 121.799 5.15302 121.685 5.50421C121.516 6.01468 121.423 6.54743 121.411 7.08501Z" fill="black"/>
<path d="M130.507 12C130.115 12.0166 129.725 11.9377 129.37 11.77C129.056 11.6045 128.804 11.3425 128.65 11.0228C128.476 10.6095 128.392 10.1634 128.406 9.71496V4.61318H127.298V4.05268C127.643 4.03375 127.977 3.91935 128.262 3.72217C128.536 3.52032 128.742 3.23949 128.852 2.91738C129.006 2.45302 129.093 1.96914 129.111 1.48025L130.075 1.36526L130.248 1.45148V3.909H132.493V4.61318H130.248V9.49944C130.22 9.8458 130.3 10.1922 130.478 10.4911C130.563 10.6105 130.679 10.7053 130.813 10.7659C130.947 10.8264 131.094 10.8506 131.241 10.836C131.493 10.8399 131.743 10.7909 131.975 10.6922C132.227 10.5869 132.46 10.4413 132.666 10.2611L132.953 10.6778C132.66 11.0703 132.294 11.4023 131.874 11.6551C131.458 11.8914 130.985 12.0106 130.507 12Z" fill="black"/>
<path d="M136.609 12C136.212 12.0145 135.818 11.9357 135.458 11.77C135.151 11.5997 134.905 11.3387 134.752 11.0228C134.578 10.6095 134.494 10.1634 134.508 9.71496V4.61318H133.4V4.05268C133.745 4.03375 134.079 3.91935 134.364 3.72217C134.638 3.52032 134.844 3.23949 134.954 2.91738C135.101 2.45128 135.188 1.96834 135.213 1.48025L136.177 1.36526L136.335 1.45148V3.909H138.595V4.61318H136.335V9.49944C136.312 9.84731 136.398 10.1938 136.58 10.4911C136.666 10.6105 136.781 10.7053 136.915 10.7659C137.049 10.8264 137.197 10.8506 137.343 10.836C137.595 10.8399 137.845 10.7909 138.077 10.6922C138.329 10.5869 138.562 10.4413 138.768 10.2611L139.056 10.6778C138.763 11.0703 138.396 11.4023 137.976 11.6551C137.56 11.8914 137.087 12.0106 136.609 12Z" fill="black"/>
<path d="M143.445 12C142.753 12.0175 142.068 11.854 141.459 11.5258C140.894 11.185 140.444 10.6849 140.164 10.0886C139.847 9.42019 139.694 8.68631 139.718 7.94734C139.693 7.14811 139.861 6.35469 140.207 5.63359C140.533 5.02213 141.034 4.52172 141.646 4.19646C142.263 3.84451 142.965 3.66568 143.675 3.67903C144.223 3.66591 144.766 3.78426 145.258 4.02401C145.697 4.23456 146.059 4.57607 146.295 5.00125C146.533 5.44256 146.657 5.93677 146.654 6.43837C146.654 6.63957 146.654 6.84074 146.654 7.04194C146.642 7.24614 146.609 7.44846 146.554 7.64551H141.704C141.682 8.21517 141.78 8.78311 141.991 9.31262C142.149 9.71925 142.431 10.0661 142.797 10.3042C143.173 10.5212 143.601 10.6306 144.035 10.6204C144.452 10.6285 144.866 10.5603 145.258 10.4192C145.672 10.2564 146.049 10.012 146.366 9.70059L146.769 10.0886C146.422 10.6836 145.926 11.1786 145.33 11.5258C144.755 11.8483 144.104 12.012 143.445 12ZM141.646 7.08501H144.798C144.798 6.97004 144.798 6.85507 144.798 6.72573V6.32338C144.844 5.79386 144.729 5.26274 144.467 4.80003C144.355 4.64029 144.203 4.51252 144.026 4.42934C143.849 4.34617 143.654 4.31045 143.459 4.32575C143.129 4.31951 142.806 4.42039 142.538 4.61319C142.245 4.83946 142.029 5.15064 141.92 5.50421C141.75 6.01468 141.658 6.54743 141.646 7.08501Z" fill="black"/>
<path d="M147.806 11.7844V11.2383L148.496 11.1377C148.562 11.1404 148.627 11.126 148.685 11.0957C148.743 11.0654 148.792 11.0204 148.827 10.9653C148.86 10.7798 148.86 10.5902 148.827 10.4048V5.57604C148.843 5.32854 148.814 5.08027 148.741 4.84309C148.694 4.77296 148.629 4.71624 148.554 4.67845C148.478 4.64067 148.394 4.62317 148.309 4.62758L147.59 4.52697V3.98085L150.209 3.82279L150.367 3.9234L150.454 5.36053C150.662 4.86369 151 4.43186 151.432 4.11023C151.811 3.82776 152.269 3.67186 152.742 3.66473C153.188 3.64327 153.625 3.79227 153.965 4.08146C154.113 4.22164 154.229 4.39149 154.306 4.57977C154.383 4.76805 154.419 4.97048 154.411 5.17369C154.416 5.40075 154.372 5.62607 154.282 5.83472C154.216 6.02391 154.083 6.18241 153.908 6.28022C153.714 6.3849 153.495 6.43465 153.274 6.42399C153.014 6.44195 152.755 6.37098 152.54 6.22277C152.463 6.15746 152.401 6.07598 152.359 5.98409C152.317 5.8922 152.295 5.79216 152.296 5.69104C152.282 5.59574 152.282 5.49889 152.296 5.40359C152.33 5.28344 152.378 5.1677 152.44 5.0587L152.713 4.59881C152.464 4.5303 152.2 4.5303 151.95 4.59881C151.686 4.67292 151.443 4.81119 151.245 5.00125C151.014 5.21286 150.832 5.47291 150.713 5.76288C150.564 6.08733 150.49 6.44096 150.497 6.79765V10.4479C150.465 10.614 150.465 10.7848 150.497 10.9509C150.497 11.0515 150.641 11.109 150.828 11.109L152.051 11.2671V11.7988L147.806 11.7844Z" fill="black"/>
</svg>
