<svg width="32" height="32" viewBox="0 0 32 32" fill="none" xmlns="http://www.w3.org/2000/svg">
<rect x="0.5" y="0.5" width="31" height="31" rx="15.5" fill="white"/>
<rect x="0.5" y="0.5" width="31" height="31" rx="15.5" stroke="#E3E2E2"/>
<path d="M19.0001 13V13.0066M10.6667 13.3333C10.6667 12.626 10.9477 11.9478 11.4478 11.4477C11.9479 10.9476 12.6262 10.6666 13.3334 10.6666H18.6667C19.374 10.6666 20.0523 10.9476 20.5524 11.4477C21.0525 11.9478 21.3334 12.626 21.3334 13.3333V18.6666C21.3334 19.3739 21.0525 20.0521 20.5524 20.5522C20.0523 21.0523 19.374 21.3333 18.6667 21.3333H13.3334C12.6262 21.3333 11.9479 21.0523 11.4478 20.5522C10.9477 20.0521 10.6667 19.3739 10.6667 18.6666V13.3333ZM14.0001 16C14.0001 16.5304 14.2108 17.0391 14.5859 17.4142C14.9609 17.7892 15.4696 18 16.0001 18C16.5305 18 17.0392 17.7892 17.4143 17.4142C17.7894 17.0391 18.0001 16.5304 18.0001 16C18.0001 15.4695 17.7894 14.9608 17.4143 14.5857C17.0392 14.2107 16.5305 14 16.0001 14C15.4696 14 14.9609 14.2107 14.5859 14.5857C14.2108 14.9608 14.0001 15.4695 14.0001 16Z" stroke="black" stroke-width="1.33" stroke-linecap="round" stroke-linejoin="round"/>
</svg>
