<svg width="32" height="32" viewBox="0 0 32 32" fill="none" xmlns="http://www.w3.org/2000/svg">
<rect x="0.5" y="0.5" width="31" height="31" rx="15.5" fill="white"/>
<rect x="0.5" y="0.5" width="31" height="31" rx="15.5" stroke="#E3E2E2"/>
<path d="M13.9999 18L17.9999 14M15.3333 12L15.6419 11.6426C16.2671 11.0175 17.115 10.6664 17.9992 10.6664C18.8833 10.6665 19.7311 11.0178 20.3563 11.643C20.9814 12.2682 21.3325 13.1161 21.3325 14.0002C21.3324 14.8843 20.9811 15.7322 20.3559 16.3573L19.9999 16.6666M16.6666 20L16.4019 20.356C15.7694 20.9814 14.9158 21.3322 14.0263 21.3322C13.1367 21.3322 12.2831 20.9814 11.6506 20.356C11.3388 20.0477 11.0913 19.6807 10.9224 19.2761C10.7535 18.8715 10.6665 18.4374 10.6665 17.999C10.6665 17.5605 10.7535 17.1265 10.9224 16.7219C11.0913 16.3173 11.3388 15.9502 11.6506 15.642L11.9999 15.3333" stroke="black" stroke-width="1.33" stroke-linecap="round" stroke-linejoin="round"/>
</svg>
