<svg width="18" height="18" viewBox="0 0 18 18" fill="none" xmlns="http://www.w3.org/2000/svg">
<path d="M4.14 14.7075C4.34626 14.021 4.76831 13.4193 5.34354 12.9916C5.91877 12.564 6.61654 12.3331 7.33333 12.3333H10.6667C11.3844 12.3331 12.083 12.5645 12.6587 12.9932C13.2343 13.4218 13.6562 14.0248 13.8617 14.7125M1.5 9C1.5 9.98491 1.69399 10.9602 2.0709 11.8701C2.44781 12.7801 3.00026 13.6069 3.6967 14.3033C4.39314 14.9997 5.21993 15.5522 6.12987 15.9291C7.03982 16.306 8.01509 16.5 9 16.5C9.98491 16.5 10.9602 16.306 11.8701 15.9291C12.7801 15.5522 13.6069 14.9997 14.3033 14.3033C14.9997 13.6069 15.5522 12.7801 15.9291 11.8701C16.306 10.9602 16.5 9.98491 16.5 9C16.5 8.01509 16.306 7.03982 15.9291 6.12987C15.5522 5.21993 14.9997 4.39314 14.3033 3.6967C13.6069 3.00026 12.7801 2.44781 11.8701 2.0709C10.9602 1.69399 9.98491 1.5 9 1.5C8.01509 1.5 7.03982 1.69399 6.12987 2.0709C5.21993 2.44781 4.39314 3.00026 3.6967 3.6967C3.00026 4.39314 2.44781 5.21993 2.0709 6.12987C1.69399 7.03982 1.5 8.01509 1.5 9ZM6.5 7.33333C6.5 7.99637 6.76339 8.63226 7.23223 9.1011C7.70107 9.56994 8.33696 9.83333 9 9.83333C9.66304 9.83333 10.2989 9.56994 10.7678 9.1011C11.2366 8.63226 11.5 7.99637 11.5 7.33333C11.5 6.67029 11.2366 6.03441 10.7678 5.56557C10.2989 5.09673 9.66304 4.83333 9 4.83333C8.33696 4.83333 7.70107 5.09673 7.23223 5.56557C6.76339 6.03441 6.5 6.67029 6.5 7.33333Z" stroke="#C6C5C5" stroke-width="1.66667" stroke-linecap="round" stroke-linejoin="round"/>
</svg>
