<svg width="22" height="19" viewBox="0 0 22 19" fill="none" xmlns="http://www.w3.org/2000/svg">
<path d="M13.058 1.40989C11.251 2.17689 10.063 3.86289 10.002 5.78989L10 5.97189L9.75702 5.94889C7.36502 5.67989 5.25902 4.43689 3.81302 2.41789C3.7151 2.28105 3.58425 2.17114 3.43256 2.09832C3.28088 2.0255 3.11327 1.99213 2.94526 2.00131C2.77725 2.01048 2.61428 2.0619 2.47142 2.1508C2.32857 2.2397 2.21045 2.36321 2.12802 2.50989L2.03102 2.69589L1.98202 2.79489C1.26302 4.27989 0.792019 6.08489 0.965019 7.99789L0.995019 8.27089C1.27802 10.5339 2.49502 12.4859 4.77402 13.9499L4.94702 14.0569L4.86602 14.0999C3.55102 14.7629 2.34802 15.0519 1.03902 14.9999C-0.016981 14.9599 -0.406981 16.3719 0.521019 16.8779C4.11902 18.8389 7.98202 19.4439 11.313 18.4779C15.373 17.2979 18.465 14.2549 19.648 10.0449L19.775 9.54989C20.013 8.55689 20.147 7.54389 20.176 6.52589L20.179 6.19389L20.572 5.41489L21.012 4.55289L21.226 4.11889L21.344 3.87189C21.609 3.30689 21.8 2.83889 21.918 2.44189L21.932 2.38589L21.94 2.36789C22.16 1.77489 21.774 1.00989 20.999 1.00989L20.877 1.01689C20.798 1.0266 20.7205 1.04574 20.646 1.07389L20.56 1.11189C20.2746 1.25048 19.9807 1.37072 19.68 1.47189L19.324 1.58689L19.053 1.66689L18.281 1.88089C16.945 0.762889 15.137 0.626888 13.269 1.32689L13.058 1.40989Z" fill="black"/>
</svg>
