<svg width="175" height="175" viewBox="0 0 175 175" fill="none" xmlns="http://www.w3.org/2000/svg">
<path d="M113.855 118.072C146.46 118.072 172.892 92.1129 172.892 60.0903C172.892 28.0678 146.46 2.1084 113.855 2.1084C81.2507 2.1084 54.8193 28.0678 54.8193 60.0903C54.8193 92.1129 81.2507 118.072 113.855 118.072Z" fill="#FF5D1D"/>
<path d="M111.747 122.289C144.352 122.289 170.783 95.8577 170.783 63.2529C170.783 30.6482 144.352 4.2168 111.747 4.2168C79.1422 4.2168 52.7108 30.6482 52.7108 63.2529C52.7108 95.8577 79.1422 122.289 111.747 122.289Z" fill="#FF5C1C"/>
<path d="M109.639 124.397C142.243 124.397 168.675 97.9661 168.675 65.3613C168.675 32.7566 142.243 6.3252 109.639 6.3252C77.0338 6.3252 50.6024 32.7566 50.6024 65.3613C50.6024 97.9661 77.0338 124.397 109.639 124.397Z" fill="#FF5B1C"/>
<path d="M106.476 126.506C138.498 126.506 164.458 100.075 164.458 67.4697C164.458 34.865 138.498 8.43359 106.476 8.43359C74.4533 8.43359 48.494 34.865 48.494 67.4697C48.494 100.075 74.4533 126.506 106.476 126.506Z" fill="#FF5A1C"/>
<path d="M104.367 128.614C136.39 128.614 162.349 102.655 162.349 70.6323C162.349 38.6098 136.39 12.6504 104.367 12.6504C72.345 12.6504 46.3856 38.6098 46.3856 70.6323C46.3856 102.655 72.345 128.614 104.367 128.614Z" fill="#FF591B"/>
<path d="M99.0964 132.832C131.701 132.832 158.133 106.872 158.133 74.8496C158.133 42.8271 131.701 16.8677 99.0964 16.8677C66.4916 16.8677 40.0602 42.8271 40.0602 74.8496C40.0602 106.872 66.4916 132.832 99.0964 132.832Z" fill="#FF571B"/>
<path d="M96.9879 134.94C129.593 134.94 156.024 108.981 156.024 76.958C156.024 44.9355 129.593 18.9761 96.9879 18.9761C64.3832 18.9761 37.9518 44.9355 37.9518 76.958C37.9518 108.981 64.3832 134.94 96.9879 134.94Z" fill="#FF561A"/>
<path d="M94.8795 139.157C127.484 139.157 153.916 112.725 153.916 80.1206C153.916 47.5159 127.484 21.0845 94.8795 21.0845C62.2748 21.0845 35.8434 47.5159 35.8434 80.1206C35.8434 112.725 62.2748 139.157 94.8795 139.157Z" fill="#FF551A"/>
<path d="M91.7169 141.265C123.739 141.265 149.699 114.834 149.699 82.229C149.699 49.6242 123.739 23.1929 91.7169 23.1929C59.6943 23.1929 33.7349 49.6242 33.7349 82.229C33.7349 114.834 59.6943 141.265 91.7169 141.265Z" fill="#FF541A"/>
<path d="M89.6085 143.374C121.631 143.374 147.59 117.414 147.59 85.3916C147.59 53.3691 121.631 27.4097 89.6085 27.4097C57.5859 27.4097 31.6265 53.3691 31.6265 85.3916C31.6265 117.414 57.5859 143.374 89.6085 143.374Z" fill="#FF5319"/>
<path d="M82.2289 149.699C114.834 149.699 141.265 123.739 141.265 91.7168C141.265 59.6943 114.834 33.7349 82.2289 33.7349C49.6241 33.7349 23.1927 59.6943 23.1927 91.7168C23.1927 123.739 49.6241 149.699 82.2289 149.699Z" fill="#FF5118"/>
<path d="M80.1205 153.916C112.725 153.916 139.157 127.484 139.157 94.8794C139.157 62.2746 112.725 35.8433 80.1205 35.8433C47.5157 35.8433 21.0844 62.2746 21.0844 94.8794C21.0844 127.484 47.5157 153.916 80.1205 153.916Z" fill="#FF5018"/>
<path d="M78.012 156.024C110.617 156.024 137.048 129.593 137.048 96.9878C137.048 64.383 110.617 37.9517 78.012 37.9517C45.4073 37.9517 18.9759 64.383 18.9759 96.9878C18.9759 129.593 45.4073 156.024 78.012 156.024Z" fill="#FF4F18"/>
<path d="M74.8494 158.132C106.872 158.132 132.831 132.173 132.831 100.15C132.831 68.1278 106.872 42.1685 74.8494 42.1685C42.8269 42.1685 16.8675 68.1278 16.8675 100.15C16.8675 132.173 42.8269 158.132 74.8494 158.132Z" fill="#FF4E17"/>
<path d="M72.741 160.241C104.763 160.241 130.723 134.282 130.723 102.259C130.723 70.2367 104.763 44.2773 72.741 44.2773C40.7184 44.2773 14.759 70.2367 14.759 102.259C14.759 134.282 40.7184 160.241 72.741 160.241Z" fill="#FF4D17"/>
<path d="M67.4699 164.458C100.075 164.458 126.506 138.499 126.506 106.476C126.506 74.4535 100.075 48.4941 67.4699 48.4941C34.8651 48.4941 8.43372 74.4535 8.43372 106.476C8.43372 138.499 34.8651 164.458 67.4699 164.458Z" fill="#FF4B16"/>
<path d="M65.3615 166.566C97.9662 166.566 124.398 140.607 124.398 108.584C124.398 76.5619 97.9662 50.6025 65.3615 50.6025C32.7567 50.6025 6.32532 76.5619 6.32532 108.584C6.32532 140.607 32.7567 166.566 65.3615 166.566Z" fill="#FF4A16"/>
<path d="M63.253 170.783C95.8578 170.783 122.289 144.352 122.289 111.747C122.289 79.1423 95.8578 52.7109 63.253 52.7109C30.6482 52.7109 4.21686 79.1423 4.21686 111.747C4.21686 144.352 30.6482 170.783 63.253 170.783Z" fill="#FF4916"/>
<path d="M60.0904 172.892C92.1129 172.892 118.072 146.46 118.072 113.855C118.072 81.2507 92.1129 54.8193 60.0904 54.8193C28.0679 54.8193 2.10846 81.2507 2.10846 113.855C2.10846 146.46 28.0679 172.892 60.0904 172.892Z" fill="#FF4815"/>
<path d="M57.9819 175C90.0045 175 115.964 149.041 115.964 117.018C115.964 84.9955 90.0045 59.0361 57.9819 59.0361C25.9594 59.0361 0 84.9955 0 117.018C0 149.041 25.9594 175 57.9819 175Z" fill="#FF4715"/>
<path d="M117.018 115.964C149.041 115.964 175 90.0045 175 57.9819C175 25.9594 149.041 0 117.018 0C84.9955 0 59.0361 25.9594 59.0361 57.9819C59.0361 90.0045 84.9955 115.964 117.018 115.964Z" fill="#FF9D5A"/>
<path opacity="0.65" d="M87.5 145.482C119.523 145.482 145.482 119.523 145.482 87.5C145.482 55.4775 119.523 29.5181 87.5 29.5181C55.4775 29.5181 29.5181 55.4775 29.5181 87.5C29.5181 119.523 55.4775 145.482 87.5 145.482Z" fill="#FF7029"/>
</svg>
