<svg width="15" height="15" viewBox="0 0 15 15" fill="none" xmlns="http://www.w3.org/2000/svg">
<path d="M4.93153 14.9233C7.65514 14.9233 9.86307 12.7185 9.86307 9.99877C9.86307 7.27901 7.65514 5.07422 4.93153 5.07422C2.20792 5.07422 0 7.27901 0 9.99877C0 12.7185 2.20792 14.9233 4.93153 14.9233Z" fill="#FF4715"/>
<path d="M9.86307 9.97959C12.5867 9.97959 14.7946 7.7748 14.7946 5.05504C14.7946 2.33529 12.5867 0.130493 9.86307 0.130493C7.13946 0.130493 4.93153 2.33529 4.93153 5.05504C4.93153 7.7748 7.13946 9.97959 9.86307 9.97959Z" fill="#FF9D5A"/>
<path opacity="0.65" d="M7.40689 12.4515C10.1305 12.4515 12.3384 10.2467 12.3384 7.52697C12.3384 4.80721 10.1305 2.60242 7.40689 2.60242C4.68328 2.60242 2.47536 4.80721 2.47536 7.52697C2.47536 10.2467 4.68328 12.4515 7.40689 12.4515Z" fill="#FF7029"/>
</svg>
