<svg width="32" height="32" viewBox="0 0 32 32" fill="none" xmlns="http://www.w3.org/2000/svg">
<rect x="0.5" y="0.5" width="31" height="31" rx="15.5" fill="white"/>
<rect x="0.5" y="0.5" width="31" height="31" rx="15.5" stroke="#E3E2E2"/>
<mask id="path-2-inside-1_920_3502" fill="white">
<path d="M17.2697 14.9798L22.2341 9.33337H21.0581L16.7457 14.2351L13.3039 9.33337H9.33325L14.539 16.7463L9.33325 22.6667H10.5093L15.0604 17.4892L18.6959 22.6667H22.6666M10.9337 10.2011H12.7404L21.0573 21.8416H19.2501"/>
</mask>
<path d="M17.2697 14.9798L22.2341 9.33337H21.0581L16.7457 14.2351L13.3039 9.33337H9.33325L14.539 16.7463L9.33325 22.6667H10.5093L15.0604 17.4892L18.6959 22.6667H22.6666M10.9337 10.2011H12.7404L21.0573 21.8416H19.2501" fill="black"/>
<path d="M22.2341 9.33337L22.9851 9.99367L24.4449 8.33337H22.2341V9.33337ZM21.0581 9.33337V8.33337H20.606L20.3073 8.67284L21.0581 9.33337ZM16.7457 14.2351L15.9273 14.8097L16.6573 15.8494L17.4965 14.8956L16.7457 14.2351ZM13.3039 9.33337L14.1223 8.75873L13.8237 8.33337H13.3039V9.33337ZM9.33325 9.33337V8.33337H7.40905L8.51489 9.90807L9.33325 9.33337ZM14.539 16.7463L15.29 17.4066L15.8097 16.8156L15.3574 16.1716L14.539 16.7463ZM9.33325 22.6667L8.58228 22.0064L7.12236 23.6667H9.33325V22.6667ZM10.5093 22.6667V23.6667H10.9616L11.2603 23.3269L10.5093 22.6667ZM15.0604 17.4892L15.8788 16.9146L15.1484 15.8745L14.3093 16.829L15.0604 17.4892ZM18.6959 22.6667L17.8775 23.2414L18.1762 23.6667H18.6959V22.6667ZM12.7404 10.2011L13.554 9.61975L13.2549 9.2011H12.7404V10.2011ZM21.0573 21.8416V22.8416H23.0007L21.8709 21.2603L21.0573 21.8416ZM18.0207 15.6401L22.9851 9.99367L21.4831 8.67308L16.5187 14.3195L18.0207 15.6401ZM22.2341 8.33337H21.0581V10.3334H22.2341V8.33337ZM20.3073 8.67284L15.9949 13.5745L17.4965 14.8956L21.8089 9.99391L20.3073 8.67284ZM17.5641 13.6604L14.1223 8.75873L12.4855 9.90802L15.9273 14.8097L17.5641 13.6604ZM13.3039 8.33337H9.33325V10.3334H13.3039V8.33337ZM8.51489 9.90807L13.7207 17.321L15.3574 16.1716L10.1516 8.75867L8.51489 9.90807ZM13.7881 16.086L8.58228 22.0064L10.0842 23.327L15.29 17.4066L13.7881 16.086ZM9.33325 23.6667H10.5093V21.6667H9.33325V23.6667ZM11.2603 23.3269L15.8114 18.1495L14.3093 16.829L9.75817 22.0065L11.2603 23.3269ZM14.242 18.0639L17.8775 23.2414L19.5143 22.092L15.8788 16.9146L14.242 18.0639ZM18.6959 23.6667H22.6666V21.6667H18.6959V23.6667ZM10.9337 11.2011H12.7404V9.2011H10.9337V11.2011ZM11.9267 10.7824L20.2436 22.423L21.8709 21.2603L13.554 9.61975L11.9267 10.7824ZM21.0573 20.8416H19.2501V22.8416H21.0573V20.8416Z" fill="black" mask="url(#path-2-inside-1_920_3502)"/>
</svg>
